<svg width="335" height="373" viewBox="0 0 335 373" fill="none" xmlns="http://www.w3.org/2000/svg">
<g filter="url(#filter0_d_159_482)">
<mask id="path-1-inside-1_159_482" fill="white">
<path d="M262.278 0C275.311 0 287 2.68621 294.891 6.63651C302.71 10.5868 305.712 15.0111 305.712 18.1714C305.712 21.2526 302.71 25.7639 294.891 29.6273C287 33.5776 275.311 36.3428 262.278 36.3428C249.246 36.3428 237.556 33.5776 229.737 29.6273C221.838 25.7639 218.837 21.2526 218.837 18.1714C218.837 15.0111 221.838 10.5868 229.737 6.63651C237.556 2.68621 249.246 0 262.278 0ZM135.904 25.2819C148.936 25.2819 160.626 27.9681 168.445 31.9184C176.344 35.8687 179.345 40.2931 179.345 43.4533C179.345 46.5346 176.344 51.0458 168.445 54.9092C160.626 58.8595 148.936 61.6168 135.904 61.6168C132.27 61.6168 128.795 61.3798 125.478 60.9848C122.081 56.6473 117.263 52.7997 111.655 50.2399C105.179 47.3167 97.6753 44.9465 92.4623 43.4533C92.4623 40.2931 95.4637 35.8687 103.362 31.9184C111.182 27.9681 122.871 25.2819 135.904 25.2819ZM305.712 39.8111C306.028 51.3934 293.485 56.118 285.579 58.4566C271.441 62.5649 253.116 62.5649 238.978 58.4566C228.868 55.5649 218.916 49.9871 218.837 39.8111C231.554 48.2095 250.115 50.4691 262.278 50.556C277.68 49.2682 293.856 47.6722 305.712 39.8111ZM72.7163 56.3313C85.7487 56.3313 97.4383 59.0175 105.258 63.0389C113.156 66.9102 116.158 71.4136 116.158 74.4948C116.158 77.655 113.156 82.0794 105.258 86.0297C97.4383 89.98 85.7487 92.6662 72.7163 92.6662C59.6839 92.6662 47.9942 89.98 40.1748 86.0297C32.2763 82.0794 29.275 77.655 29.275 74.4948C29.275 71.4136 32.2763 66.9102 40.1748 63.0389C47.9942 59.0175 59.6839 56.3313 72.7163 56.3313ZM179.345 65.0931V66.9892C177.054 67.7793 174.843 68.7274 172.789 69.7544C165.681 73.3097 159.52 78.2871 156.361 84.5286C148.304 86.5037 139.221 87.2148 130.375 86.6617V75.6799C132.191 75.7589 134.008 75.8379 135.904 75.8379C150.832 75.8379 164.417 72.9147 174.843 67.7003C176.423 66.9102 177.923 66.0411 179.345 65.0931ZM305.712 65.1721C305.98 76.707 293.453 81.4473 285.579 83.8175C280.208 85.3186 274.205 86.3457 268.044 86.6617C266.465 82.5534 263.621 78.9191 259.988 75.8379C270.098 76.0749 280.287 74.8108 289.528 72.2036C295.681 70.3865 301.131 68.0953 305.712 65.1721ZM211.729 75.8379C224.761 75.8379 236.451 78.6031 244.27 82.4744C252.168 86.4247 255.17 90.849 255.17 94.0093C255.17 97.1695 252.168 101.594 244.27 105.544C236.451 109.494 224.761 112.181 211.729 112.181C198.696 112.181 187.006 109.494 179.187 105.544C171.289 101.594 168.287 97.1695 168.287 94.0093C168.287 90.849 171.289 86.4247 179.187 82.4744C187.006 78.6031 198.696 75.8379 211.729 75.8379ZM305.712 90.454C305.98 101.989 293.453 106.729 285.579 109.099C280.603 110.522 275.074 111.47 269.387 111.865V100.962C276.338 100.488 283.13 99.3027 289.528 97.4855C295.681 95.6684 301.131 93.3772 305.712 90.454ZM116.158 96.2215C116.316 107.835 103.994 112.497 96.0166 114.867C81.8784 118.975 63.5541 118.975 49.4159 114.867C39.3849 111.944 29.3539 106.413 29.275 96.2215C30.6967 97.0905 32.1974 97.9596 33.7771 98.7496C44.203 103.964 57.7883 106.887 72.7163 106.887C87.6443 106.887 101.23 103.964 111.655 98.7496C113.235 97.9596 114.736 97.0905 116.158 96.2215ZM154.07 99.5397V110.364C146.646 111.865 138.352 112.418 130.375 111.944V101.041C138.352 101.436 146.409 100.962 154.07 99.5397ZM255.17 115.657C255.565 120.397 253.432 124.269 250.826 126.56C247.508 129.404 242.137 132.327 235.029 134.381C220.891 138.411 202.566 138.411 188.428 134.381C181.32 132.327 175.949 129.404 172.631 126.56C168.761 123.321 168.287 120.16 168.287 115.657C169.709 116.605 171.21 117.474 172.789 118.264C183.215 123.479 196.8 126.402 211.729 126.402C226.657 126.402 240.242 123.479 250.668 118.264C252.247 117.474 253.748 116.605 255.17 115.657ZM305.712 115.736C305.98 127.271 293.453 132.011 285.579 134.381C280.603 135.803 275.074 136.752 269.387 137.147V126.244C276.338 125.77 283.13 124.585 289.528 122.767C295.681 120.95 301.131 118.659 305.712 115.736ZM116.158 121.503C116.316 133.117 103.994 137.779 96.0166 140.149C81.8784 144.257 63.5541 144.257 49.4159 140.149C39.3849 137.226 29.3539 131.695 29.275 121.503C33.856 124.427 39.3059 126.718 45.4667 128.535C62.6063 133.512 82.8262 133.512 99.9658 128.535C106.127 126.718 111.577 124.427 116.158 121.503ZM154.07 124.822V135.645C146.646 137.147 138.352 137.7 130.375 137.226V126.323C138.352 126.718 146.409 126.244 154.07 124.822ZM305.712 141.018C305.98 152.553 293.453 157.293 285.579 159.663C280.603 161.085 275.074 162.033 269.387 162.429V151.526C276.338 151.052 283.13 149.867 289.528 148.049C295.681 146.232 301.131 143.941 305.712 141.018ZM255.17 141.018C255.565 145.758 253.432 149.551 250.826 151.842C247.508 154.686 242.137 157.609 235.029 159.663C220.891 163.693 202.566 163.693 188.428 159.663C181.32 157.609 175.949 154.686 172.631 151.842C168.761 148.602 168.287 145.521 168.287 141.018C172.868 143.941 178.318 146.232 184.479 148.049C201.619 152.948 221.838 152.948 238.978 148.049C245.139 146.232 250.589 143.941 255.17 141.018ZM116.158 146.785C116.316 158.399 103.994 163.061 96.0166 165.431C81.8784 169.539 63.5541 169.539 49.4159 165.431C39.3849 162.508 29.3539 156.977 29.275 146.785C33.856 149.709 39.3059 152 45.4667 153.817C62.6063 158.794 82.8262 158.794 99.9658 153.817C106.127 152 111.577 149.709 116.158 146.785ZM154.07 150.104V160.927C146.646 162.429 138.352 162.982 130.375 162.508V151.605C138.352 152 146.409 151.526 154.07 150.104ZM255.17 166.3V168.117C252.879 168.907 250.668 169.855 248.614 170.882C241.506 174.437 235.345 179.415 232.185 185.656C218.521 188.975 201.619 188.738 188.428 184.945C181.32 182.891 175.949 179.968 172.631 177.124C168.761 173.884 168.287 170.803 168.287 166.3C172.868 169.223 178.318 171.514 184.479 173.331C201.619 178.23 221.838 178.23 238.978 173.331C245.139 171.514 250.589 169.223 255.17 166.3ZM116.158 172.067C116.316 183.681 103.994 188.342 96.0166 190.713C81.8784 194.821 63.5541 194.821 49.4159 190.713C39.3849 187.789 29.3539 182.259 29.275 172.067C33.856 174.99 39.3059 177.282 45.4667 179.099C62.6063 184.076 82.8262 184.076 99.9658 179.099C106.127 177.282 111.577 174.99 116.158 172.067ZM154.07 175.386V186.209C146.646 187.71 138.352 188.264 130.375 187.789V176.887C138.352 177.282 146.409 176.808 154.07 175.386ZM287.553 176.966C300.578 176.966 312.268 179.731 320.166 183.602C327.985 187.552 330.987 191.977 330.987 195.137C330.987 198.297 327.985 202.722 320.166 206.672C312.268 210.622 300.578 213.308 287.553 213.308C274.521 213.308 262.831 210.622 255.012 206.672C247.113 202.722 244.112 198.297 244.112 195.137C244.112 191.977 247.113 187.552 255.012 183.602C262.831 179.731 274.521 176.966 287.553 176.966ZM168.287 191.582C172.868 194.505 178.318 196.796 184.479 198.613C198.696 202.643 214.967 203.354 229.895 200.667V211.491C216.626 214.256 200.908 213.782 188.428 210.227C178.476 207.304 168.366 201.695 168.287 191.582ZM116.158 197.349C116.395 208.568 104.547 213.387 96.7275 215.758C92.3044 212.202 88.2762 209.516 83.5371 207.541C89.224 206.909 94.7529 205.882 99.9658 204.381C106.127 202.564 111.577 200.272 116.158 197.349ZM29.275 197.349C31.4865 198.771 33.935 200.035 36.6205 201.221C34.172 201.458 31.7235 201.774 29.4329 202.169C29.117 200.588 29.275 199.008 29.275 197.349ZM154.07 200.667V211.412C145.461 213.071 138.273 213.466 130.375 213.15V202.169C138.352 202.564 146.409 202.09 154.07 200.667ZM47.4413 214.889C60.4737 214.889 72.1634 217.654 79.9828 221.525C87.8813 225.475 90.8826 229.9 90.8826 233.06C90.8826 236.22 87.8813 240.645 79.9828 244.595C72.1634 248.545 60.4737 251.231 47.4413 251.231C34.4089 251.231 22.7193 248.545 14.8998 244.595C7.0014 240.645 4 236.22 4 233.06C4 229.9 7.0014 225.475 14.8998 221.525C22.7193 217.654 34.4089 214.889 47.4413 214.889ZM330.987 216.785C331.216 228.478 318.894 233.139 310.846 235.509C296.708 239.538 278.391 239.538 264.253 235.509C254.222 232.586 244.191 226.976 244.112 216.785C245.534 217.733 247.034 218.602 248.614 219.392C259.04 224.606 272.625 227.529 287.553 227.529C303.042 226.265 319.052 224.685 330.987 216.785ZM168.287 216.864C172.868 219.787 178.318 222.078 184.479 223.895C198.696 227.925 214.967 228.636 229.895 225.949V236.773C216.626 239.538 200.908 239.064 188.428 235.509C178.476 232.586 168.366 226.976 168.287 216.864ZM116.158 222.631C116.474 230.769 109.839 235.351 105.258 237.721C105.258 237.721 105.179 237.8 105.1 237.8V228.004C109.207 226.502 112.919 224.685 116.158 222.631ZM330.987 242.146C331.255 253.68 318.728 258.421 310.846 260.791C296.708 264.82 278.391 264.82 264.253 260.791C254.301 257.868 244.191 252.258 244.112 242.146C248.693 245.069 254.143 247.36 260.304 249.177C277.443 254.076 297.655 254.076 314.795 249.177C320.956 247.36 326.406 245.069 330.987 242.146ZM229.895 251.231V261.976C226.025 262.845 221.838 263.398 217.494 263.714C215.915 259.527 213.071 255.893 209.438 252.811C216.31 252.969 223.26 252.416 229.895 251.231ZM161.179 252.811C174.211 252.811 185.901 255.577 193.72 259.448C201.619 263.398 204.62 267.823 204.62 270.983C204.62 274.143 201.619 278.567 193.72 282.518C185.901 286.468 174.211 289.154 161.179 289.154C148.146 289.154 136.457 286.468 128.637 282.518C120.739 278.567 117.737 274.143 117.737 270.983C117.737 267.823 120.739 263.398 128.637 259.448C136.457 255.577 148.146 252.811 161.179 252.811ZM90.8826 254.708C90.9616 266.4 78.877 271.062 70.7417 273.432C56.6035 277.461 38.2791 277.461 24.141 273.432C14.11 270.509 4.07898 264.899 4 254.708C16.4795 262.292 35.3568 265.373 47.4413 265.452C62.9222 264.188 78.956 262.608 90.8826 254.708ZM330.987 267.428C331.255 278.962 318.728 283.703 310.846 286.073C296.708 290.102 278.391 290.102 264.253 286.073C254.301 283.15 244.191 277.54 244.112 267.428C248.693 270.351 254.143 272.642 260.304 274.459C277.443 279.357 297.655 279.357 314.795 274.459C320.956 272.642 326.406 270.351 330.987 267.428ZM90.8826 280.069C91.0406 291.682 78.7191 296.344 70.7417 298.714C56.6035 302.743 38.2791 302.743 24.141 298.714C14.189 295.791 4.07898 290.181 4 280.069C8.58109 282.992 14.031 285.283 20.1918 287.1C37.3314 291.998 57.5513 291.998 74.6909 287.1C80.8517 285.283 86.3016 282.992 90.8826 280.069ZM204.62 292.63C205.015 297.371 202.882 301.242 200.276 303.533C196.958 306.378 191.588 309.301 184.479 311.355C170.341 315.384 152.016 315.384 137.878 311.355C130.77 309.301 125.399 306.378 122.081 303.533C118.764 300.689 117.737 298.24 117.737 296.265V292.63C119.159 293.579 120.66 294.448 122.239 295.238C132.665 300.452 146.251 303.375 161.179 303.375C176.107 303.375 189.692 300.452 200.118 295.238C201.698 294.448 203.198 293.579 204.62 292.63ZM330.987 292.709C331.255 304.244 318.728 308.985 310.846 311.355C296.708 315.384 278.391 315.384 264.253 311.355C254.301 308.432 244.191 302.822 244.112 292.709C248.693 295.633 254.143 297.924 260.304 299.741C277.443 304.639 297.655 304.639 314.795 299.741C320.956 297.924 326.406 295.633 330.987 292.709ZM90.8826 305.35C91.0406 316.964 78.7191 321.626 70.7417 323.996C56.6035 328.025 38.2791 328.025 24.141 323.996C14.189 321.073 4.07898 315.463 4 305.35C8.58109 308.274 14.031 310.565 20.1918 312.382C37.3314 317.28 57.5513 317.28 74.6909 312.382C80.8517 310.565 86.3016 308.274 90.8826 305.35ZM330.987 317.991C331.255 329.526 318.728 334.267 310.846 336.637C296.708 340.666 278.391 340.666 264.253 336.637C254.301 333.714 244.191 328.104 244.112 317.991C248.693 320.915 254.143 323.206 260.304 325.023C277.443 329.921 297.655 329.921 314.795 325.023C320.956 323.206 326.406 320.915 330.987 317.991ZM204.62 317.991C204.936 326.129 198.301 330.711 193.72 333.082C185.901 337.032 174.211 339.718 161.179 339.718C148.146 339.718 136.457 337.032 128.637 333.082C120.818 328.183 117.737 326.287 117.737 317.991C122.318 320.915 127.768 323.206 133.929 325.023C151.069 329.921 171.289 329.921 188.428 325.023C194.589 323.206 200.039 320.915 204.62 317.991ZM90.8826 330.632C91.1986 338.77 84.5639 343.352 79.9828 345.723C72.1634 349.673 60.4737 352.359 47.4413 352.359C34.4089 352.359 22.7193 349.673 14.8998 345.723C7.08038 340.824 4 338.928 4 330.632C8.58109 333.556 14.031 335.847 20.1918 337.664C37.3314 342.562 57.5513 342.562 74.6909 337.664C80.8517 335.847 86.3016 333.556 90.8826 330.632ZM330.987 343.273C331.334 351.332 324.763 355.993 320.166 358.363C312.268 362.314 300.578 365 287.553 365C274.521 365 262.831 362.314 255.012 358.363C247.192 353.465 244.112 351.569 244.112 343.273C248.693 346.197 254.143 348.488 260.304 350.305C277.443 355.203 297.655 355.203 314.795 350.305C320.956 348.488 326.406 346.197 330.987 343.273Z"/>
</mask>
<path d="M262.278 0C275.311 0 287 2.68621 294.891 6.63651C302.71 10.5868 305.712 15.0111 305.712 18.1714C305.712 21.2526 302.71 25.7639 294.891 29.6273C287 33.5776 275.311 36.3428 262.278 36.3428C249.246 36.3428 237.556 33.5776 229.737 29.6273C221.838 25.7639 218.837 21.2526 218.837 18.1714C218.837 15.0111 221.838 10.5868 229.737 6.63651C237.556 2.68621 249.246 0 262.278 0ZM135.904 25.2819C148.936 25.2819 160.626 27.9681 168.445 31.9184C176.344 35.8687 179.345 40.2931 179.345 43.4533C179.345 46.5346 176.344 51.0458 168.445 54.9092C160.626 58.8595 148.936 61.6168 135.904 61.6168C132.27 61.6168 128.795 61.3798 125.478 60.9848C122.081 56.6473 117.263 52.7997 111.655 50.2399C105.179 47.3167 97.6753 44.9465 92.4623 43.4533C92.4623 40.2931 95.4637 35.8687 103.362 31.9184C111.182 27.9681 122.871 25.2819 135.904 25.2819ZM305.712 39.8111C306.028 51.3934 293.485 56.118 285.579 58.4566C271.441 62.5649 253.116 62.5649 238.978 58.4566C228.868 55.5649 218.916 49.9871 218.837 39.8111C231.554 48.2095 250.115 50.4691 262.278 50.556C277.68 49.2682 293.856 47.6722 305.712 39.8111ZM72.7163 56.3313C85.7487 56.3313 97.4383 59.0175 105.258 63.0389C113.156 66.9102 116.158 71.4136 116.158 74.4948C116.158 77.655 113.156 82.0794 105.258 86.0297C97.4383 89.98 85.7487 92.6662 72.7163 92.6662C59.6839 92.6662 47.9942 89.98 40.1748 86.0297C32.2763 82.0794 29.275 77.655 29.275 74.4948C29.275 71.4136 32.2763 66.9102 40.1748 63.0389C47.9942 59.0175 59.6839 56.3313 72.7163 56.3313ZM179.345 65.0931V66.9892C177.054 67.7793 174.843 68.7274 172.789 69.7544C165.681 73.3097 159.52 78.2871 156.361 84.5286C148.304 86.5037 139.221 87.2148 130.375 86.6617V75.6799C132.191 75.7589 134.008 75.8379 135.904 75.8379C150.832 75.8379 164.417 72.9147 174.843 67.7003C176.423 66.9102 177.923 66.0411 179.345 65.0931ZM305.712 65.1721C305.98 76.707 293.453 81.4473 285.579 83.8175C280.208 85.3186 274.205 86.3457 268.044 86.6617C266.465 82.5534 263.621 78.9191 259.988 75.8379C270.098 76.0749 280.287 74.8108 289.528 72.2036C295.681 70.3865 301.131 68.0953 305.712 65.1721ZM211.729 75.8379C224.761 75.8379 236.451 78.6031 244.27 82.4744C252.168 86.4247 255.17 90.849 255.17 94.0093C255.17 97.1695 252.168 101.594 244.27 105.544C236.451 109.494 224.761 112.181 211.729 112.181C198.696 112.181 187.006 109.494 179.187 105.544C171.289 101.594 168.287 97.1695 168.287 94.0093C168.287 90.849 171.289 86.4247 179.187 82.4744C187.006 78.6031 198.696 75.8379 211.729 75.8379ZM305.712 90.454C305.98 101.989 293.453 106.729 285.579 109.099C280.603 110.522 275.074 111.47 269.387 111.865V100.962C276.338 100.488 283.13 99.3027 289.528 97.4855C295.681 95.6684 301.131 93.3772 305.712 90.454ZM116.158 96.2215C116.316 107.835 103.994 112.497 96.0166 114.867C81.8784 118.975 63.5541 118.975 49.4159 114.867C39.3849 111.944 29.3539 106.413 29.275 96.2215C30.6967 97.0905 32.1974 97.9596 33.7771 98.7496C44.203 103.964 57.7883 106.887 72.7163 106.887C87.6443 106.887 101.23 103.964 111.655 98.7496C113.235 97.9596 114.736 97.0905 116.158 96.2215ZM154.07 99.5397V110.364C146.646 111.865 138.352 112.418 130.375 111.944V101.041C138.352 101.436 146.409 100.962 154.07 99.5397ZM255.17 115.657C255.565 120.397 253.432 124.269 250.826 126.56C247.508 129.404 242.137 132.327 235.029 134.381C220.891 138.411 202.566 138.411 188.428 134.381C181.32 132.327 175.949 129.404 172.631 126.56C168.761 123.321 168.287 120.16 168.287 115.657C169.709 116.605 171.21 117.474 172.789 118.264C183.215 123.479 196.8 126.402 211.729 126.402C226.657 126.402 240.242 123.479 250.668 118.264C252.247 117.474 253.748 116.605 255.17 115.657ZM305.712 115.736C305.98 127.271 293.453 132.011 285.579 134.381C280.603 135.803 275.074 136.752 269.387 137.147V126.244C276.338 125.77 283.13 124.585 289.528 122.767C295.681 120.95 301.131 118.659 305.712 115.736ZM116.158 121.503C116.316 133.117 103.994 137.779 96.0166 140.149C81.8784 144.257 63.5541 144.257 49.4159 140.149C39.3849 137.226 29.3539 131.695 29.275 121.503C33.856 124.427 39.3059 126.718 45.4667 128.535C62.6063 133.512 82.8262 133.512 99.9658 128.535C106.127 126.718 111.577 124.427 116.158 121.503ZM154.07 124.822V135.645C146.646 137.147 138.352 137.7 130.375 137.226V126.323C138.352 126.718 146.409 126.244 154.07 124.822ZM305.712 141.018C305.98 152.553 293.453 157.293 285.579 159.663C280.603 161.085 275.074 162.033 269.387 162.429V151.526C276.338 151.052 283.13 149.867 289.528 148.049C295.681 146.232 301.131 143.941 305.712 141.018ZM255.17 141.018C255.565 145.758 253.432 149.551 250.826 151.842C247.508 154.686 242.137 157.609 235.029 159.663C220.891 163.693 202.566 163.693 188.428 159.663C181.32 157.609 175.949 154.686 172.631 151.842C168.761 148.602 168.287 145.521 168.287 141.018C172.868 143.941 178.318 146.232 184.479 148.049C201.619 152.948 221.838 152.948 238.978 148.049C245.139 146.232 250.589 143.941 255.17 141.018ZM116.158 146.785C116.316 158.399 103.994 163.061 96.0166 165.431C81.8784 169.539 63.5541 169.539 49.4159 165.431C39.3849 162.508 29.3539 156.977 29.275 146.785C33.856 149.709 39.3059 152 45.4667 153.817C62.6063 158.794 82.8262 158.794 99.9658 153.817C106.127 152 111.577 149.709 116.158 146.785ZM154.07 150.104V160.927C146.646 162.429 138.352 162.982 130.375 162.508V151.605C138.352 152 146.409 151.526 154.07 150.104ZM255.17 166.3V168.117C252.879 168.907 250.668 169.855 248.614 170.882C241.506 174.437 235.345 179.415 232.185 185.656C218.521 188.975 201.619 188.738 188.428 184.945C181.32 182.891 175.949 179.968 172.631 177.124C168.761 173.884 168.287 170.803 168.287 166.3C172.868 169.223 178.318 171.514 184.479 173.331C201.619 178.23 221.838 178.23 238.978 173.331C245.139 171.514 250.589 169.223 255.17 166.3ZM116.158 172.067C116.316 183.681 103.994 188.342 96.0166 190.713C81.8784 194.821 63.5541 194.821 49.4159 190.713C39.3849 187.789 29.3539 182.259 29.275 172.067C33.856 174.99 39.3059 177.282 45.4667 179.099C62.6063 184.076 82.8262 184.076 99.9658 179.099C106.127 177.282 111.577 174.99 116.158 172.067ZM154.07 175.386V186.209C146.646 187.71 138.352 188.264 130.375 187.789V176.887C138.352 177.282 146.409 176.808 154.07 175.386ZM287.553 176.966C300.578 176.966 312.268 179.731 320.166 183.602C327.985 187.552 330.987 191.977 330.987 195.137C330.987 198.297 327.985 202.722 320.166 206.672C312.268 210.622 300.578 213.308 287.553 213.308C274.521 213.308 262.831 210.622 255.012 206.672C247.113 202.722 244.112 198.297 244.112 195.137C244.112 191.977 247.113 187.552 255.012 183.602C262.831 179.731 274.521 176.966 287.553 176.966ZM168.287 191.582C172.868 194.505 178.318 196.796 184.479 198.613C198.696 202.643 214.967 203.354 229.895 200.667V211.491C216.626 214.256 200.908 213.782 188.428 210.227C178.476 207.304 168.366 201.695 168.287 191.582ZM116.158 197.349C116.395 208.568 104.547 213.387 96.7275 215.758C92.3044 212.202 88.2762 209.516 83.5371 207.541C89.224 206.909 94.7529 205.882 99.9658 204.381C106.127 202.564 111.577 200.272 116.158 197.349ZM29.275 197.349C31.4865 198.771 33.935 200.035 36.6205 201.221C34.172 201.458 31.7235 201.774 29.4329 202.169C29.117 200.588 29.275 199.008 29.275 197.349ZM154.07 200.667V211.412C145.461 213.071 138.273 213.466 130.375 213.15V202.169C138.352 202.564 146.409 202.09 154.07 200.667ZM47.4413 214.889C60.4737 214.889 72.1634 217.654 79.9828 221.525C87.8813 225.475 90.8826 229.9 90.8826 233.06C90.8826 236.22 87.8813 240.645 79.9828 244.595C72.1634 248.545 60.4737 251.231 47.4413 251.231C34.4089 251.231 22.7193 248.545 14.8998 244.595C7.0014 240.645 4 236.22 4 233.06C4 229.9 7.0014 225.475 14.8998 221.525C22.7193 217.654 34.4089 214.889 47.4413 214.889ZM330.987 216.785C331.216 228.478 318.894 233.139 310.846 235.509C296.708 239.538 278.391 239.538 264.253 235.509C254.222 232.586 244.191 226.976 244.112 216.785C245.534 217.733 247.034 218.602 248.614 219.392C259.04 224.606 272.625 227.529 287.553 227.529C303.042 226.265 319.052 224.685 330.987 216.785ZM168.287 216.864C172.868 219.787 178.318 222.078 184.479 223.895C198.696 227.925 214.967 228.636 229.895 225.949V236.773C216.626 239.538 200.908 239.064 188.428 235.509C178.476 232.586 168.366 226.976 168.287 216.864ZM116.158 222.631C116.474 230.769 109.839 235.351 105.258 237.721C105.258 237.721 105.179 237.8 105.1 237.8V228.004C109.207 226.502 112.919 224.685 116.158 222.631ZM330.987 242.146C331.255 253.68 318.728 258.421 310.846 260.791C296.708 264.82 278.391 264.82 264.253 260.791C254.301 257.868 244.191 252.258 244.112 242.146C248.693 245.069 254.143 247.36 260.304 249.177C277.443 254.076 297.655 254.076 314.795 249.177C320.956 247.36 326.406 245.069 330.987 242.146ZM229.895 251.231V261.976C226.025 262.845 221.838 263.398 217.494 263.714C215.915 259.527 213.071 255.893 209.438 252.811C216.31 252.969 223.26 252.416 229.895 251.231ZM161.179 252.811C174.211 252.811 185.901 255.577 193.72 259.448C201.619 263.398 204.62 267.823 204.62 270.983C204.62 274.143 201.619 278.567 193.72 282.518C185.901 286.468 174.211 289.154 161.179 289.154C148.146 289.154 136.457 286.468 128.637 282.518C120.739 278.567 117.737 274.143 117.737 270.983C117.737 267.823 120.739 263.398 128.637 259.448C136.457 255.577 148.146 252.811 161.179 252.811ZM90.8826 254.708C90.9616 266.4 78.877 271.062 70.7417 273.432C56.6035 277.461 38.2791 277.461 24.141 273.432C14.11 270.509 4.07898 264.899 4 254.708C16.4795 262.292 35.3568 265.373 47.4413 265.452C62.9222 264.188 78.956 262.608 90.8826 254.708ZM330.987 267.428C331.255 278.962 318.728 283.703 310.846 286.073C296.708 290.102 278.391 290.102 264.253 286.073C254.301 283.15 244.191 277.54 244.112 267.428C248.693 270.351 254.143 272.642 260.304 274.459C277.443 279.357 297.655 279.357 314.795 274.459C320.956 272.642 326.406 270.351 330.987 267.428ZM90.8826 280.069C91.0406 291.682 78.7191 296.344 70.7417 298.714C56.6035 302.743 38.2791 302.743 24.141 298.714C14.189 295.791 4.07898 290.181 4 280.069C8.58109 282.992 14.031 285.283 20.1918 287.1C37.3314 291.998 57.5513 291.998 74.6909 287.1C80.8517 285.283 86.3016 282.992 90.8826 280.069ZM204.62 292.63C205.015 297.371 202.882 301.242 200.276 303.533C196.958 306.378 191.588 309.301 184.479 311.355C170.341 315.384 152.016 315.384 137.878 311.355C130.77 309.301 125.399 306.378 122.081 303.533C118.764 300.689 117.737 298.24 117.737 296.265V292.63C119.159 293.579 120.66 294.448 122.239 295.238C132.665 300.452 146.251 303.375 161.179 303.375C176.107 303.375 189.692 300.452 200.118 295.238C201.698 294.448 203.198 293.579 204.62 292.63ZM330.987 292.709C331.255 304.244 318.728 308.985 310.846 311.355C296.708 315.384 278.391 315.384 264.253 311.355C254.301 308.432 244.191 302.822 244.112 292.709C248.693 295.633 254.143 297.924 260.304 299.741C277.443 304.639 297.655 304.639 314.795 299.741C320.956 297.924 326.406 295.633 330.987 292.709ZM90.8826 305.35C91.0406 316.964 78.7191 321.626 70.7417 323.996C56.6035 328.025 38.2791 328.025 24.141 323.996C14.189 321.073 4.07898 315.463 4 305.35C8.58109 308.274 14.031 310.565 20.1918 312.382C37.3314 317.28 57.5513 317.28 74.6909 312.382C80.8517 310.565 86.3016 308.274 90.8826 305.35ZM330.987 317.991C331.255 329.526 318.728 334.267 310.846 336.637C296.708 340.666 278.391 340.666 264.253 336.637C254.301 333.714 244.191 328.104 244.112 317.991C248.693 320.915 254.143 323.206 260.304 325.023C277.443 329.921 297.655 329.921 314.795 325.023C320.956 323.206 326.406 320.915 330.987 317.991ZM204.62 317.991C204.936 326.129 198.301 330.711 193.72 333.082C185.901 337.032 174.211 339.718 161.179 339.718C148.146 339.718 136.457 337.032 128.637 333.082C120.818 328.183 117.737 326.287 117.737 317.991C122.318 320.915 127.768 323.206 133.929 325.023C151.069 329.921 171.289 329.921 188.428 325.023C194.589 323.206 200.039 320.915 204.62 317.991ZM90.8826 330.632C91.1986 338.77 84.5639 343.352 79.9828 345.723C72.1634 349.673 60.4737 352.359 47.4413 352.359C34.4089 352.359 22.7193 349.673 14.8998 345.723C7.08038 340.824 4 338.928 4 330.632C8.58109 333.556 14.031 335.847 20.1918 337.664C37.3314 342.562 57.5513 342.562 74.6909 337.664C80.8517 335.847 86.3016 333.556 90.8826 330.632ZM330.987 343.273C331.334 351.332 324.763 355.993 320.166 358.363C312.268 362.314 300.578 365 287.553 365C274.521 365 262.831 362.314 255.012 358.363C247.192 353.465 244.112 351.569 244.112 343.273C248.693 346.197 254.143 348.488 260.304 350.305C277.443 355.203 297.655 355.203 314.795 350.305C320.956 348.488 326.406 346.197 330.987 343.273Z" fill="#F48B34"/>
<path d="M262.278 0C275.311 0 287 2.68621 294.891 6.63651C302.71 10.5868 305.712 15.0111 305.712 18.1714C305.712 21.2526 302.71 25.7639 294.891 29.6273C287 33.5776 275.311 36.3428 262.278 36.3428C249.246 36.3428 237.556 33.5776 229.737 29.6273C221.838 25.7639 218.837 21.2526 218.837 18.1714C218.837 15.0111 221.838 10.5868 229.737 6.63651C237.556 2.68621 249.246 0 262.278 0ZM135.904 25.2819C148.936 25.2819 160.626 27.9681 168.445 31.9184C176.344 35.8687 179.345 40.2931 179.345 43.4533C179.345 46.5346 176.344 51.0458 168.445 54.9092C160.626 58.8595 148.936 61.6168 135.904 61.6168C132.27 61.6168 128.795 61.3798 125.478 60.9848C122.081 56.6473 117.263 52.7997 111.655 50.2399C105.179 47.3167 97.6753 44.9465 92.4623 43.4533C92.4623 40.2931 95.4637 35.8687 103.362 31.9184C111.182 27.9681 122.871 25.2819 135.904 25.2819ZM305.712 39.8111C306.028 51.3934 293.485 56.118 285.579 58.4566C271.441 62.5649 253.116 62.5649 238.978 58.4566C228.868 55.5649 218.916 49.9871 218.837 39.8111C231.554 48.2095 250.115 50.4691 262.278 50.556C277.68 49.2682 293.856 47.6722 305.712 39.8111ZM72.7163 56.3313C85.7487 56.3313 97.4383 59.0175 105.258 63.0389C113.156 66.9102 116.158 71.4136 116.158 74.4948C116.158 77.655 113.156 82.0794 105.258 86.0297C97.4383 89.98 85.7487 92.6662 72.7163 92.6662C59.6839 92.6662 47.9942 89.98 40.1748 86.0297C32.2763 82.0794 29.275 77.655 29.275 74.4948C29.275 71.4136 32.2763 66.9102 40.1748 63.0389C47.9942 59.0175 59.6839 56.3313 72.7163 56.3313ZM179.345 65.0931V66.9892C177.054 67.7793 174.843 68.7274 172.789 69.7544C165.681 73.3097 159.52 78.2871 156.361 84.5286C148.304 86.5037 139.221 87.2148 130.375 86.6617V75.6799C132.191 75.7589 134.008 75.8379 135.904 75.8379C150.832 75.8379 164.417 72.9147 174.843 67.7003C176.423 66.9102 177.923 66.0411 179.345 65.0931ZM305.712 65.1721C305.98 76.707 293.453 81.4473 285.579 83.8175C280.208 85.3186 274.205 86.3457 268.044 86.6617C266.465 82.5534 263.621 78.9191 259.988 75.8379C270.098 76.0749 280.287 74.8108 289.528 72.2036C295.681 70.3865 301.131 68.0953 305.712 65.1721ZM211.729 75.8379C224.761 75.8379 236.451 78.6031 244.27 82.4744C252.168 86.4247 255.17 90.849 255.17 94.0093C255.17 97.1695 252.168 101.594 244.27 105.544C236.451 109.494 224.761 112.181 211.729 112.181C198.696 112.181 187.006 109.494 179.187 105.544C171.289 101.594 168.287 97.1695 168.287 94.0093C168.287 90.849 171.289 86.4247 179.187 82.4744C187.006 78.6031 198.696 75.8379 211.729 75.8379ZM305.712 90.454C305.98 101.989 293.453 106.729 285.579 109.099C280.603 110.522 275.074 111.47 269.387 111.865V100.962C276.338 100.488 283.13 99.3027 289.528 97.4855C295.681 95.6684 301.131 93.3772 305.712 90.454ZM116.158 96.2215C116.316 107.835 103.994 112.497 96.0166 114.867C81.8784 118.975 63.5541 118.975 49.4159 114.867C39.3849 111.944 29.3539 106.413 29.275 96.2215C30.6967 97.0905 32.1974 97.9596 33.7771 98.7496C44.203 103.964 57.7883 106.887 72.7163 106.887C87.6443 106.887 101.23 103.964 111.655 98.7496C113.235 97.9596 114.736 97.0905 116.158 96.2215ZM154.07 99.5397V110.364C146.646 111.865 138.352 112.418 130.375 111.944V101.041C138.352 101.436 146.409 100.962 154.07 99.5397ZM255.17 115.657C255.565 120.397 253.432 124.269 250.826 126.56C247.508 129.404 242.137 132.327 235.029 134.381C220.891 138.411 202.566 138.411 188.428 134.381C181.32 132.327 175.949 129.404 172.631 126.56C168.761 123.321 168.287 120.16 168.287 115.657C169.709 116.605 171.21 117.474 172.789 118.264C183.215 123.479 196.8 126.402 211.729 126.402C226.657 126.402 240.242 123.479 250.668 118.264C252.247 117.474 253.748 116.605 255.17 115.657ZM305.712 115.736C305.98 127.271 293.453 132.011 285.579 134.381C280.603 135.803 275.074 136.752 269.387 137.147V126.244C276.338 125.77 283.13 124.585 289.528 122.767C295.681 120.95 301.131 118.659 305.712 115.736ZM116.158 121.503C116.316 133.117 103.994 137.779 96.0166 140.149C81.8784 144.257 63.5541 144.257 49.4159 140.149C39.3849 137.226 29.3539 131.695 29.275 121.503C33.856 124.427 39.3059 126.718 45.4667 128.535C62.6063 133.512 82.8262 133.512 99.9658 128.535C106.127 126.718 111.577 124.427 116.158 121.503ZM154.07 124.822V135.645C146.646 137.147 138.352 137.7 130.375 137.226V126.323C138.352 126.718 146.409 126.244 154.07 124.822ZM305.712 141.018C305.98 152.553 293.453 157.293 285.579 159.663C280.603 161.085 275.074 162.033 269.387 162.429V151.526C276.338 151.052 283.13 149.867 289.528 148.049C295.681 146.232 301.131 143.941 305.712 141.018ZM255.17 141.018C255.565 145.758 253.432 149.551 250.826 151.842C247.508 154.686 242.137 157.609 235.029 159.663C220.891 163.693 202.566 163.693 188.428 159.663C181.32 157.609 175.949 154.686 172.631 151.842C168.761 148.602 168.287 145.521 168.287 141.018C172.868 143.941 178.318 146.232 184.479 148.049C201.619 152.948 221.838 152.948 238.978 148.049C245.139 146.232 250.589 143.941 255.17 141.018ZM116.158 146.785C116.316 158.399 103.994 163.061 96.0166 165.431C81.8784 169.539 63.5541 169.539 49.4159 165.431C39.3849 162.508 29.3539 156.977 29.275 146.785C33.856 149.709 39.3059 152 45.4667 153.817C62.6063 158.794 82.8262 158.794 99.9658 153.817C106.127 152 111.577 149.709 116.158 146.785ZM154.07 150.104V160.927C146.646 162.429 138.352 162.982 130.375 162.508V151.605C138.352 152 146.409 151.526 154.07 150.104ZM255.17 166.3V168.117C252.879 168.907 250.668 169.855 248.614 170.882C241.506 174.437 235.345 179.415 232.185 185.656C218.521 188.975 201.619 188.738 188.428 184.945C181.32 182.891 175.949 179.968 172.631 177.124C168.761 173.884 168.287 170.803 168.287 166.3C172.868 169.223 178.318 171.514 184.479 173.331C201.619 178.23 221.838 178.23 238.978 173.331C245.139 171.514 250.589 169.223 255.17 166.3ZM116.158 172.067C116.316 183.681 103.994 188.342 96.0166 190.713C81.8784 194.821 63.5541 194.821 49.4159 190.713C39.3849 187.789 29.3539 182.259 29.275 172.067C33.856 174.99 39.3059 177.282 45.4667 179.099C62.6063 184.076 82.8262 184.076 99.9658 179.099C106.127 177.282 111.577 174.99 116.158 172.067ZM154.07 175.386V186.209C146.646 187.71 138.352 188.264 130.375 187.789V176.887C138.352 177.282 146.409 176.808 154.07 175.386ZM287.553 176.966C300.578 176.966 312.268 179.731 320.166 183.602C327.985 187.552 330.987 191.977 330.987 195.137C330.987 198.297 327.985 202.722 320.166 206.672C312.268 210.622 300.578 213.308 287.553 213.308C274.521 213.308 262.831 210.622 255.012 206.672C247.113 202.722 244.112 198.297 244.112 195.137C244.112 191.977 247.113 187.552 255.012 183.602C262.831 179.731 274.521 176.966 287.553 176.966ZM168.287 191.582C172.868 194.505 178.318 196.796 184.479 198.613C198.696 202.643 214.967 203.354 229.895 200.667V211.491C216.626 214.256 200.908 213.782 188.428 210.227C178.476 207.304 168.366 201.695 168.287 191.582ZM116.158 197.349C116.395 208.568 104.547 213.387 96.7275 215.758C92.3044 212.202 88.2762 209.516 83.5371 207.541C89.224 206.909 94.7529 205.882 99.9658 204.381C106.127 202.564 111.577 200.272 116.158 197.349ZM29.275 197.349C31.4865 198.771 33.935 200.035 36.6205 201.221C34.172 201.458 31.7235 201.774 29.4329 202.169C29.117 200.588 29.275 199.008 29.275 197.349ZM154.07 200.667V211.412C145.461 213.071 138.273 213.466 130.375 213.15V202.169C138.352 202.564 146.409 202.09 154.07 200.667ZM47.4413 214.889C60.4737 214.889 72.1634 217.654 79.9828 221.525C87.8813 225.475 90.8826 229.9 90.8826 233.06C90.8826 236.22 87.8813 240.645 79.9828 244.595C72.1634 248.545 60.4737 251.231 47.4413 251.231C34.4089 251.231 22.7193 248.545 14.8998 244.595C7.0014 240.645 4 236.22 4 233.06C4 229.9 7.0014 225.475 14.8998 221.525C22.7193 217.654 34.4089 214.889 47.4413 214.889ZM330.987 216.785C331.216 228.478 318.894 233.139 310.846 235.509C296.708 239.538 278.391 239.538 264.253 235.509C254.222 232.586 244.191 226.976 244.112 216.785C245.534 217.733 247.034 218.602 248.614 219.392C259.04 224.606 272.625 227.529 287.553 227.529C303.042 226.265 319.052 224.685 330.987 216.785ZM168.287 216.864C172.868 219.787 178.318 222.078 184.479 223.895C198.696 227.925 214.967 228.636 229.895 225.949V236.773C216.626 239.538 200.908 239.064 188.428 235.509C178.476 232.586 168.366 226.976 168.287 216.864ZM116.158 222.631C116.474 230.769 109.839 235.351 105.258 237.721C105.258 237.721 105.179 237.8 105.1 237.8V228.004C109.207 226.502 112.919 224.685 116.158 222.631ZM330.987 242.146C331.255 253.68 318.728 258.421 310.846 260.791C296.708 264.82 278.391 264.82 264.253 260.791C254.301 257.868 244.191 252.258 244.112 242.146C248.693 245.069 254.143 247.36 260.304 249.177C277.443 254.076 297.655 254.076 314.795 249.177C320.956 247.36 326.406 245.069 330.987 242.146ZM229.895 251.231V261.976C226.025 262.845 221.838 263.398 217.494 263.714C215.915 259.527 213.071 255.893 209.438 252.811C216.31 252.969 223.26 252.416 229.895 251.231ZM161.179 252.811C174.211 252.811 185.901 255.577 193.72 259.448C201.619 263.398 204.62 267.823 204.62 270.983C204.62 274.143 201.619 278.567 193.72 282.518C185.901 286.468 174.211 289.154 161.179 289.154C148.146 289.154 136.457 286.468 128.637 282.518C120.739 278.567 117.737 274.143 117.737 270.983C117.737 267.823 120.739 263.398 128.637 259.448C136.457 255.577 148.146 252.811 161.179 252.811ZM90.8826 254.708C90.9616 266.4 78.877 271.062 70.7417 273.432C56.6035 277.461 38.2791 277.461 24.141 273.432C14.11 270.509 4.07898 264.899 4 254.708C16.4795 262.292 35.3568 265.373 47.4413 265.452C62.9222 264.188 78.956 262.608 90.8826 254.708ZM330.987 267.428C331.255 278.962 318.728 283.703 310.846 286.073C296.708 290.102 278.391 290.102 264.253 286.073C254.301 283.15 244.191 277.54 244.112 267.428C248.693 270.351 254.143 272.642 260.304 274.459C277.443 279.357 297.655 279.357 314.795 274.459C320.956 272.642 326.406 270.351 330.987 267.428ZM90.8826 280.069C91.0406 291.682 78.7191 296.344 70.7417 298.714C56.6035 302.743 38.2791 302.743 24.141 298.714C14.189 295.791 4.07898 290.181 4 280.069C8.58109 282.992 14.031 285.283 20.1918 287.1C37.3314 291.998 57.5513 291.998 74.6909 287.1C80.8517 285.283 86.3016 282.992 90.8826 280.069ZM204.62 292.63C205.015 297.371 202.882 301.242 200.276 303.533C196.958 306.378 191.588 309.301 184.479 311.355C170.341 315.384 152.016 315.384 137.878 311.355C130.77 309.301 125.399 306.378 122.081 303.533C118.764 300.689 117.737 298.24 117.737 296.265V292.63C119.159 293.579 120.66 294.448 122.239 295.238C132.665 300.452 146.251 303.375 161.179 303.375C176.107 303.375 189.692 300.452 200.118 295.238C201.698 294.448 203.198 293.579 204.62 292.63ZM330.987 292.709C331.255 304.244 318.728 308.985 310.846 311.355C296.708 315.384 278.391 315.384 264.253 311.355C254.301 308.432 244.191 302.822 244.112 292.709C248.693 295.633 254.143 297.924 260.304 299.741C277.443 304.639 297.655 304.639 314.795 299.741C320.956 297.924 326.406 295.633 330.987 292.709ZM90.8826 305.35C91.0406 316.964 78.7191 321.626 70.7417 323.996C56.6035 328.025 38.2791 328.025 24.141 323.996C14.189 321.073 4.07898 315.463 4 305.35C8.58109 308.274 14.031 310.565 20.1918 312.382C37.3314 317.28 57.5513 317.28 74.6909 312.382C80.8517 310.565 86.3016 308.274 90.8826 305.35ZM330.987 317.991C331.255 329.526 318.728 334.267 310.846 336.637C296.708 340.666 278.391 340.666 264.253 336.637C254.301 333.714 244.191 328.104 244.112 317.991C248.693 320.915 254.143 323.206 260.304 325.023C277.443 329.921 297.655 329.921 314.795 325.023C320.956 323.206 326.406 320.915 330.987 317.991ZM204.62 317.991C204.936 326.129 198.301 330.711 193.72 333.082C185.901 337.032 174.211 339.718 161.179 339.718C148.146 339.718 136.457 337.032 128.637 333.082C120.818 328.183 117.737 326.287 117.737 317.991C122.318 320.915 127.768 323.206 133.929 325.023C151.069 329.921 171.289 329.921 188.428 325.023C194.589 323.206 200.039 320.915 204.62 317.991ZM90.8826 330.632C91.1986 338.77 84.5639 343.352 79.9828 345.723C72.1634 349.673 60.4737 352.359 47.4413 352.359C34.4089 352.359 22.7193 349.673 14.8998 345.723C7.08038 340.824 4 338.928 4 330.632C8.58109 333.556 14.031 335.847 20.1918 337.664C37.3314 342.562 57.5513 342.562 74.6909 337.664C80.8517 335.847 86.3016 333.556 90.8826 330.632ZM330.987 343.273C331.334 351.332 324.763 355.993 320.166 358.363C312.268 362.314 300.578 365 287.553 365C274.521 365 262.831 362.314 255.012 358.363C247.192 353.465 244.112 351.569 244.112 343.273C248.693 346.197 254.143 348.488 260.304 350.305C277.443 355.203 297.655 355.203 314.795 350.305C320.956 348.488 326.406 346.197 330.987 343.273Z" stroke="black" stroke-opacity="0.5" stroke-width="2" mask="url(#path-1-inside-1_159_482)"/>
</g>
<defs>
<filter id="filter0_d_159_482" x="0" y="0" width="335" height="373" filterUnits="userSpaceOnUse" color-interpolation-filters="sRGB">
<feFlood flood-opacity="0" result="BackgroundImageFix"/>
<feColorMatrix in="SourceAlpha" type="matrix" values="0 0 0 0 0 0 0 0 0 0 0 0 0 0 0 0 0 0 127 0" result="hardAlpha"/>
<feOffset dy="4"/>
<feGaussianBlur stdDeviation="2"/>
<feComposite in2="hardAlpha" operator="out"/>
<feColorMatrix type="matrix" values="0 0 0 0 0 0 0 0 0 0 0 0 0 0 0 0 0 0 0.25 0"/>
<feBlend mode="normal" in2="BackgroundImageFix" result="effect1_dropShadow_159_482"/>
<feBlend mode="normal" in="SourceGraphic" in2="effect1_dropShadow_159_482" result="shape"/>
</filter>
</defs>
</svg>
